<svg xmlns="http://www.w3.org/2000/svg" xmlns:xlink="http://www.w3.org/1999/xlink" width="200.195" height="200" class="icon" p-id="6658" t="1578467893631" version="1.1" viewBox="0 0 1025 1024"><defs><style type="text/css"/></defs><path fill="#009BFC" d="M512 512m-512 0a512 512 0 1 0 1024 0 512 512 0 1 0-1024 0Z" p-id="6659"/><path fill="#C6C6C6" d="M248.32 675.84l39.936 68.096h162.304l-40.96-69.12z" p-id="6660"/><path fill="#D8D8D8" d="M472.064 623.104l-62.464 51.712 40.96 69.12 61.44-52.736z" p-id="6661"/><path fill="#FFF" d="M656.896 426.496l84.992-92.672 39.936 69.12-84.992 92.16z" p-id="6662"/><path fill="#D8D8D8" d="M588.288 439.296l68.608-12.8 39.936 68.608-68.608 13.312z" p-id="6663"/><path fill="#FFF" d="M472.064 623.104H360.96l223.232-246.272h59.904l-55.808 62.464 68.608-12.8 84.992-92.672h-180.736L248.32 675.84l161.28-1.024z" p-id="6664"/><path fill="#D8D8D8" d="M603.136 464.896l-142.848 158.208H360.96l223.232-246.272 23.552 40.96-19.456 21.504z" p-id="6665"/><path fill="#C6C6C6" d="M644.096 376.832h-59.904l23.552 40.96z" p-id="6666"/><path fill="#FFF" d="M308.736 314.368L241.664 376.832l99.328 1.024 66.56-63.488z" p-id="6667"/><path fill="#9B9B9B" d="M379.392 492.032l-44.032-13.824L241.664 376.832l99.328 1.024 339.968 368.128h-87.552L533.504 689.152h59.904L349.184 423.424h-32.256z" p-id="6668"/><path fill="#FFF" d="M407.552 314.368l-66.56 63.488 339.968 368.128 66.56-62.464zM316.928 423.424H349.184l48.128 51.712-17.92 16.896zM533.504 689.152h59.904l-27.648-30.208z" p-id="6669"/></svg>