<svg xmlns="http://www.w3.org/2000/svg" xmlns:xlink="http://www.w3.org/1999/xlink" width="302" height="98"><defs><filter id="a" width="104.8%" height="143.8%" x="-2.4%" y="-15.6%" filterUnits="objectBoundingBox"><feOffset dy="2" in="SourceAlpha" result="shadowOffsetOuter1"/><feGaussianBlur in="shadowOffsetOuter1" result="shadowBlurOuter1" stdDeviation="2"/><feComposite in="shadowBlurOuter1" in2="SourceAlpha" operator="out" result="shadowBlurOuter1"/><feColorMatrix in="shadowBlurOuter1" values="0 0 0 0 0 0 0 0 0 0 0 0 0 0 0 0 0 0 0.123075181 0"/></filter><path id="b" d="M0 0h294v32H0z"/></defs><g fill="none" fill-rule="evenodd"><g transform="translate(25 45)"><path fill="#FFF" stroke="#AFDFFF" d="M.5.5h250v26H.5z"/><text fill="#ABB4BB" font-family="Roboto-Regular, Roboto" font-size="12"><tspan x="31" y="19">3</tspan></text><text fill="#ABB4BB" font-family="Roboto-Regular, Roboto" font-size="12"><tspan x="50" y="19">OXz3…T3A4</tspan></text><text fill="#ABB4BB" font-family="Roboto-Regular, Roboto" font-size="12"><tspan x="142" y="19">0.020000 CFX</tspan></text><circle cx="16.5" cy="14.5" r="6.5" stroke="#AFDFFF" stroke-width="2"/></g><g transform="translate(25)"><path fill="#FFF" stroke="#AFDFFF" d="M.5.5h250v26H.5z"/><text fill="#ABB4BB" font-family="Roboto-Regular, Roboto" font-size="12"><tspan x="31" y="19">1</tspan></text><text fill="#ABB4BB" font-family="Roboto-Regular, Roboto" font-size="12"><tspan x="50" y="19">OXa4…s0a2</tspan></text><text fill="#ABB4BB" font-family="Roboto-Regular, Roboto" font-size="12"><tspan x="142" y="19">0.01500 CFX</tspan></text><circle cx="16.5" cy="14.5" r="6.5" stroke="#AFDFFF" stroke-width="2"/></g><g transform="translate(25 71)"><path fill="#FFF" stroke="#AFDFFF" d="M.5.5h250v26H.5z"/><text fill="#ABB4BB" font-family="Roboto-Regular, Roboto" font-size="12"><tspan x="31" y="18">4</tspan></text><text fill="#ABB4BB" font-family="Roboto-Regular, Roboto" font-size="12"><tspan x="50" y="18">OXd2…D0V4</tspan></text><text fill="#ABB4BB" font-family="Roboto-Regular, Roboto" font-size="12"><tspan x="142" y="18">0.030000 CFX</tspan></text><circle cx="16.5" cy="13.5" r="6.5" stroke="#AFDFFF" stroke-width="2"/></g><g transform="translate(4 21)"><use fill="#000" filter="url(#a)" xlink:href="#b"/><path fill="#D9F0FF" stroke="#3098DC" stroke-linejoin="square" d="M.5.5h293v31H.5z"/><text fill="#4A4A4A" font-family="Roboto-Regular, Roboto" font-size="16"><tspan x="36" y="22">2</tspan></text><text fill="#4A4A4A" font-family="Roboto-Regular, Roboto" font-size="16"><tspan x="58" y="22">OXe7…B0a1</tspan></text><text fill="#4A4A4A" font-family="Roboto-Regular, Roboto" font-size="16"><tspan x="166" y="22">0.041000 CFX</tspan></text><circle cx="19.5" cy="16.5" r="7.5" stroke="#3098DC" stroke-width="2"/><path stroke="#3098DC" stroke-width="2" d="M15 17l2.55 2.55L24 13.904"/></g></g></svg>